<mxfile host="app.diagrams.net" modified="2022-02-05T05:31:12.129Z" agent="5.0 (Macintosh; Intel Mac OS X 10_15_7) AppleWebKit/605.1.15 (KHTML, like Gecko) Version/15.2 Safari/605.1.15" etag="ZhXsZM6tfp--sCegSkWM" version="16.5.3" type="github">
  <diagram id="GZz4sPHdD5TM7rzJ2TVc" name="Page-1">
    <mxGraphModel dx="791" dy="663" grid="1" gridSize="10" guides="1" tooltips="1" connect="1" arrows="1" fold="1" page="1" pageScale="1" pageWidth="827" pageHeight="1169" math="0" shadow="0">
      <root>
        <mxCell id="0" />
        <mxCell id="1" parent="0" />
        <mxCell id="Xuy7H9u-zmMq9Dujo6pJ-22" value="" style="shape=table;startSize=0;container=1;collapsible=0;childLayout=tableLayout;dashed=1;strokeColor=#666666;" parent="1" vertex="1">
          <mxGeometry x="310" y="390" width="140" height="240" as="geometry" />
        </mxCell>
        <mxCell id="Xuy7H9u-zmMq9Dujo6pJ-23" value="" style="shape=tableRow;horizontal=0;startSize=0;swimlaneHead=0;swimlaneBody=0;top=0;left=0;bottom=0;right=0;collapsible=0;dropTarget=0;fillColor=none;points=[[0,0.5],[1,0.5]];portConstraint=eastwest;" parent="Xuy7H9u-zmMq9Dujo6pJ-22" vertex="1">
          <mxGeometry width="140" height="240" as="geometry" />
        </mxCell>
        <mxCell id="Xuy7H9u-zmMq9Dujo6pJ-24" value="" style="shape=partialRectangle;html=1;whiteSpace=wrap;connectable=0;overflow=hidden;fillColor=none;top=0;left=0;bottom=0;right=0;pointerEvents=1;" parent="Xuy7H9u-zmMq9Dujo6pJ-23" vertex="1">
          <mxGeometry width="140" height="240" as="geometry">
            <mxRectangle width="140" height="240" as="alternateBounds" />
          </mxGeometry>
        </mxCell>
        <mxCell id="Xuy7H9u-zmMq9Dujo6pJ-25" value="" style="shape=table;startSize=0;container=1;collapsible=0;childLayout=tableLayout;dashed=1;strokeColor=#666666;" parent="1" vertex="1">
          <mxGeometry x="523" y="390" width="140" height="240" as="geometry" />
        </mxCell>
        <mxCell id="Xuy7H9u-zmMq9Dujo6pJ-26" value="" style="shape=tableRow;horizontal=0;startSize=0;swimlaneHead=0;swimlaneBody=0;top=0;left=0;bottom=0;right=0;collapsible=0;dropTarget=0;fillColor=none;points=[[0,0.5],[1,0.5]];portConstraint=eastwest;" parent="Xuy7H9u-zmMq9Dujo6pJ-25" vertex="1">
          <mxGeometry width="140" height="240" as="geometry" />
        </mxCell>
        <mxCell id="Xuy7H9u-zmMq9Dujo6pJ-27" value="" style="shape=partialRectangle;html=1;whiteSpace=wrap;connectable=0;overflow=hidden;fillColor=none;top=0;left=0;bottom=0;right=0;pointerEvents=1;" parent="Xuy7H9u-zmMq9Dujo6pJ-26" vertex="1">
          <mxGeometry width="140" height="240" as="geometry">
            <mxRectangle width="140" height="240" as="alternateBounds" />
          </mxGeometry>
        </mxCell>
        <mxCell id="Xuy7H9u-zmMq9Dujo6pJ-19" value="" style="shape=table;startSize=0;container=1;collapsible=0;childLayout=tableLayout;dashed=1;strokeColor=#666666;sketch=0;rounded=0;shadow=0;" parent="1" vertex="1">
          <mxGeometry x="93" y="390" width="140" height="240" as="geometry" />
        </mxCell>
        <mxCell id="Xuy7H9u-zmMq9Dujo6pJ-20" value="" style="shape=tableRow;horizontal=0;startSize=0;swimlaneHead=0;swimlaneBody=0;top=0;left=0;bottom=0;right=0;collapsible=0;dropTarget=0;fillColor=none;points=[[0,0.5],[1,0.5]];portConstraint=eastwest;" parent="Xuy7H9u-zmMq9Dujo6pJ-19" vertex="1">
          <mxGeometry width="140" height="240" as="geometry" />
        </mxCell>
        <mxCell id="Xuy7H9u-zmMq9Dujo6pJ-21" value="" style="shape=partialRectangle;html=1;whiteSpace=wrap;connectable=0;overflow=hidden;fillColor=none;top=0;left=0;bottom=0;right=0;pointerEvents=1;" parent="Xuy7H9u-zmMq9Dujo6pJ-20" vertex="1">
          <mxGeometry width="140" height="240" as="geometry">
            <mxRectangle width="140" height="240" as="alternateBounds" />
          </mxGeometry>
        </mxCell>
        <mxCell id="Xuy7H9u-zmMq9Dujo6pJ-11" style="edgeStyle=none;rounded=0;orthogonalLoop=1;jettySize=auto;html=1;exitX=0.25;exitY=0.67;exitDx=0;exitDy=0;exitPerimeter=0;entryX=0.5;entryY=0.16;entryDx=0;entryDy=0;entryPerimeter=0;endArrow=none;endFill=0;strokeWidth=1;strokeColor=#808080;" parent="1" source="Xuy7H9u-zmMq9Dujo6pJ-1" target="Xuy7H9u-zmMq9Dujo6pJ-2" edge="1">
          <mxGeometry relative="1" as="geometry" />
        </mxCell>
        <mxCell id="Xuy7H9u-zmMq9Dujo6pJ-12" style="edgeStyle=none;rounded=0;orthogonalLoop=1;jettySize=auto;html=1;exitX=0.5;exitY=0.84;exitDx=0;exitDy=0;exitPerimeter=0;entryX=0.5;entryY=0.16;entryDx=0;entryDy=0;entryPerimeter=0;endArrow=none;endFill=0;strokeColor=#808080;strokeWidth=1;" parent="1" source="Xuy7H9u-zmMq9Dujo6pJ-1" target="Xuy7H9u-zmMq9Dujo6pJ-7" edge="1">
          <mxGeometry relative="1" as="geometry" />
        </mxCell>
        <mxCell id="Xuy7H9u-zmMq9Dujo6pJ-13" style="edgeStyle=none;rounded=0;orthogonalLoop=1;jettySize=auto;html=1;exitX=0.75;exitY=0.67;exitDx=0;exitDy=0;exitPerimeter=0;entryX=0.5;entryY=0.16;entryDx=0;entryDy=0;entryPerimeter=0;endArrow=none;endFill=0;strokeColor=#808080;strokeWidth=1;" parent="1" source="Xuy7H9u-zmMq9Dujo6pJ-1" target="Xuy7H9u-zmMq9Dujo6pJ-9" edge="1">
          <mxGeometry relative="1" as="geometry" />
        </mxCell>
        <mxCell id="Xuy7H9u-zmMq9Dujo6pJ-1" value="Cloud Load&#xa;Balancing" style="sketch=0;html=1;fillColor=#5184F3;strokeColor=none;verticalAlign=top;labelPosition=center;verticalLabelPosition=bottom;align=center;spacingTop=-6;fontSize=11;fontStyle=1;fontColor=#999999;shape=mxgraph.gcp2.hexIcon;prIcon=cloud_load_balancing" parent="1" vertex="1">
          <mxGeometry x="347" y="254" width="66" height="58.5" as="geometry" />
        </mxCell>
        <mxCell id="Xuy7H9u-zmMq9Dujo6pJ-14" style="edgeStyle=none;rounded=0;orthogonalLoop=1;jettySize=auto;html=1;exitX=0.5;exitY=0.84;exitDx=0;exitDy=0;exitPerimeter=0;entryX=0.5;entryY=0.16;entryDx=0;entryDy=0;entryPerimeter=0;endArrow=none;endFill=0;strokeColor=#808080;strokeWidth=1;" parent="1" source="Xuy7H9u-zmMq9Dujo6pJ-2" target="Xuy7H9u-zmMq9Dujo6pJ-4" edge="1">
          <mxGeometry relative="1" as="geometry" />
        </mxCell>
        <mxCell id="Xuy7H9u-zmMq9Dujo6pJ-2" value="Compute&#xa;Engine" style="sketch=0;html=1;fillColor=#5184F3;strokeColor=none;verticalAlign=top;labelPosition=center;verticalLabelPosition=bottom;align=center;spacingTop=-6;fontSize=11;fontStyle=1;fontColor=#999999;shape=mxgraph.gcp2.hexIcon;prIcon=compute_engine" parent="1" vertex="1">
          <mxGeometry x="130" y="415" width="66" height="58.5" as="geometry" />
        </mxCell>
        <mxCell id="Xuy7H9u-zmMq9Dujo6pJ-15" style="edgeStyle=none;rounded=0;orthogonalLoop=1;jettySize=auto;html=1;exitX=0.75;exitY=0.33;exitDx=0;exitDy=0;exitPerimeter=0;entryX=0.5;entryY=0.84;entryDx=0;entryDy=0;entryPerimeter=0;endArrow=none;endFill=0;strokeColor=#808080;strokeWidth=1;" parent="1" source="Xuy7H9u-zmMq9Dujo6pJ-4" target="Xuy7H9u-zmMq9Dujo6pJ-7" edge="1">
          <mxGeometry relative="1" as="geometry" />
        </mxCell>
        <mxCell id="Xuy7H9u-zmMq9Dujo6pJ-16" style="edgeStyle=none;rounded=0;orthogonalLoop=1;jettySize=auto;html=1;exitX=0.825;exitY=0.5;exitDx=0;exitDy=0;exitPerimeter=0;entryX=0.175;entryY=0.5;entryDx=0;entryDy=0;entryPerimeter=0;endArrow=none;endFill=0;strokeColor=#808080;strokeWidth=1;" parent="1" source="Xuy7H9u-zmMq9Dujo6pJ-4" target="Xuy7H9u-zmMq9Dujo6pJ-5" edge="1">
          <mxGeometry relative="1" as="geometry" />
        </mxCell>
        <mxCell id="Xuy7H9u-zmMq9Dujo6pJ-4" value="Cloud SQL" style="sketch=0;html=1;fillColor=#5184F3;strokeColor=none;verticalAlign=top;labelPosition=center;verticalLabelPosition=bottom;align=center;spacingTop=-6;fontSize=11;fontStyle=1;fontColor=#999999;shape=mxgraph.gcp2.hexIcon;prIcon=cloud_sql" parent="1" vertex="1">
          <mxGeometry x="130" y="540" width="66" height="58.5" as="geometry" />
        </mxCell>
        <mxCell id="Xuy7H9u-zmMq9Dujo6pJ-17" style="edgeStyle=none;rounded=0;orthogonalLoop=1;jettySize=auto;html=1;exitX=0.75;exitY=0.33;exitDx=0;exitDy=0;exitPerimeter=0;entryX=0.5;entryY=0.84;entryDx=0;entryDy=0;entryPerimeter=0;endArrow=none;endFill=0;strokeColor=#808080;strokeWidth=1;" parent="1" source="Xuy7H9u-zmMq9Dujo6pJ-5" target="Xuy7H9u-zmMq9Dujo6pJ-9" edge="1">
          <mxGeometry relative="1" as="geometry" />
        </mxCell>
        <mxCell id="Xuy7H9u-zmMq9Dujo6pJ-5" value="Cloud SQL" style="sketch=0;html=1;fillColor=#5184F3;strokeColor=none;verticalAlign=top;labelPosition=center;verticalLabelPosition=bottom;align=center;spacingTop=-6;fontSize=11;fontStyle=1;fontColor=#999999;shape=mxgraph.gcp2.hexIcon;prIcon=cloud_sql" parent="1" vertex="1">
          <mxGeometry x="347" y="540" width="66" height="58.5" as="geometry" />
        </mxCell>
        <mxCell id="Xuy7H9u-zmMq9Dujo6pJ-7" value="Compute&#xa;Engine" style="sketch=0;html=1;fillColor=#5184F3;strokeColor=none;verticalAlign=top;labelPosition=center;verticalLabelPosition=bottom;align=center;spacingTop=-6;fontSize=11;fontStyle=1;fontColor=#999999;shape=mxgraph.gcp2.hexIcon;prIcon=compute_engine" parent="1" vertex="1">
          <mxGeometry x="347" y="415" width="66" height="58.5" as="geometry" />
        </mxCell>
        <mxCell id="Xuy7H9u-zmMq9Dujo6pJ-8" value="Cloud SQL" style="sketch=0;html=1;fillColor=#5184F3;strokeColor=none;verticalAlign=top;labelPosition=center;verticalLabelPosition=bottom;align=center;spacingTop=-6;fontSize=11;fontStyle=1;fontColor=#999999;shape=mxgraph.gcp2.hexIcon;prIcon=cloud_sql" parent="1" vertex="1">
          <mxGeometry x="560" y="540" width="66" height="58.5" as="geometry" />
        </mxCell>
        <mxCell id="Xuy7H9u-zmMq9Dujo6pJ-9" value="Compute&#xa;Engine" style="sketch=0;html=1;fillColor=#5184F3;strokeColor=none;verticalAlign=top;labelPosition=center;verticalLabelPosition=bottom;align=center;spacingTop=-6;fontSize=11;fontStyle=1;fontColor=#999999;shape=mxgraph.gcp2.hexIcon;prIcon=compute_engine" parent="1" vertex="1">
          <mxGeometry x="560" y="415" width="66" height="58.5" as="geometry" />
        </mxCell>
        <mxCell id="Xuy7H9u-zmMq9Dujo6pJ-31" value="&lt;font color=&quot;#666666&quot;&gt;primary&lt;/font&gt;" style="text;html=1;resizable=0;autosize=1;align=center;verticalAlign=middle;points=[];fillColor=none;strokeColor=none;rounded=0;shadow=0;sketch=0;" parent="1" vertex="1">
          <mxGeometry x="133" y="530" width="60" height="20" as="geometry" />
        </mxCell>
        <mxCell id="Xuy7H9u-zmMq9Dujo6pJ-32" value="&lt;font color=&quot;#666666&quot;&gt;standby&lt;/font&gt;" style="text;html=1;resizable=0;autosize=1;align=center;verticalAlign=middle;points=[];fillColor=none;strokeColor=none;rounded=0;shadow=0;sketch=0;" parent="1" vertex="1">
          <mxGeometry x="350" y="530" width="60" height="20" as="geometry" />
        </mxCell>
        <mxCell id="Xuy7H9u-zmMq9Dujo6pJ-33" value="&lt;font color=&quot;#666666&quot;&gt;standby&lt;/font&gt;" style="text;html=1;resizable=0;autosize=1;align=center;verticalAlign=middle;points=[];fillColor=none;strokeColor=none;rounded=0;shadow=0;sketch=0;" parent="1" vertex="1">
          <mxGeometry x="563" y="530" width="60" height="20" as="geometry" />
        </mxCell>
        <mxCell id="Xuy7H9u-zmMq9Dujo6pJ-34" value="&lt;font color=&quot;#666666&quot;&gt;asia-northeast 1-a&amp;nbsp;&lt;/font&gt;" style="text;html=1;resizable=0;autosize=1;align=center;verticalAlign=middle;points=[];fillColor=none;strokeColor=none;rounded=0;shadow=0;sketch=0;" parent="1" vertex="1">
          <mxGeometry x="103" y="370" width="120" height="20" as="geometry" />
        </mxCell>
        <mxCell id="Xuy7H9u-zmMq9Dujo6pJ-35" value="&lt;font color=&quot;#666666&quot;&gt;asia-northeast 1-b&lt;/font&gt;" style="text;html=1;resizable=0;autosize=1;align=center;verticalAlign=middle;points=[];fillColor=none;strokeColor=none;rounded=0;shadow=0;sketch=0;" parent="1" vertex="1">
          <mxGeometry x="325" y="370" width="110" height="20" as="geometry" />
        </mxCell>
        <mxCell id="Xuy7H9u-zmMq9Dujo6pJ-36" value="&lt;font color=&quot;#666666&quot;&gt;asia-northeast 1-c&lt;/font&gt;" style="text;html=1;resizable=0;autosize=1;align=center;verticalAlign=middle;points=[];fillColor=none;strokeColor=none;rounded=0;shadow=0;sketch=0;" parent="1" vertex="1">
          <mxGeometry x="538" y="370" width="110" height="20" as="geometry" />
        </mxCell>
        <mxCell id="Xuy7H9u-zmMq9Dujo6pJ-37" value="&lt;span style=&quot;font-family: , &amp;#34;meiryo&amp;#34; , &amp;#34;ヒラギノ角ゴ pro w3&amp;#34; , &amp;#34;hiragino kaku gothic pro&amp;#34; , &amp;#34;ms pgothic&amp;#34; , &amp;#34;osaka&amp;#34; , &amp;#34;arial&amp;#34; , sans-serif ; letter-spacing: 1px ; background-color: rgb(255 , 255 , 255)&quot;&gt;replication&lt;/span&gt;" style="text;html=1;resizable=0;autosize=1;align=center;verticalAlign=middle;points=[];fillColor=none;strokeColor=none;rounded=0;shadow=0;sketch=0;fontColor=#666666;" parent="1" vertex="1">
          <mxGeometry x="230" y="550" width="80" height="20" as="geometry" />
        </mxCell>
        <mxCell id="Xuy7H9u-zmMq9Dujo6pJ-38" value="&lt;span style=&quot;font-family: , &amp;#34;meiryo&amp;#34; , &amp;#34;ヒラギノ角ゴ pro w3&amp;#34; , &amp;#34;hiragino kaku gothic pro&amp;#34; , &amp;#34;ms pgothic&amp;#34; , &amp;#34;osaka&amp;#34; , &amp;#34;arial&amp;#34; , sans-serif ; letter-spacing: 1px ; background-color: rgb(255 , 255 , 255)&quot;&gt;replication&lt;/span&gt;" style="text;html=1;resizable=0;autosize=1;align=center;verticalAlign=middle;points=[];fillColor=none;strokeColor=none;rounded=0;shadow=0;sketch=0;fontColor=#666666;" parent="1" vertex="1">
          <mxGeometry x="450" y="550" width="80" height="20" as="geometry" />
        </mxCell>
        <mxCell id="Xuy7H9u-zmMq9Dujo6pJ-39" value="WordPress" style="text;html=1;resizable=0;autosize=1;align=center;verticalAlign=middle;points=[];fillColor=none;strokeColor=none;rounded=0;shadow=0;sketch=0;fontColor=#666666;" parent="1" vertex="1">
          <mxGeometry x="128" y="400" width="70" height="20" as="geometry" />
        </mxCell>
        <mxCell id="Xuy7H9u-zmMq9Dujo6pJ-42" value="" style="aspect=fixed;perimeter=ellipsePerimeter;html=1;align=center;shadow=0;dashed=0;spacingTop=3;image;image=img/lib/active_directory/internet_cloud.svg;rounded=1;sketch=0;fontColor=#666666;strokeColor=#666666;gradientColor=#ffffff;" parent="1" vertex="1">
          <mxGeometry x="568" y="267.5" width="50" height="31.5" as="geometry" />
        </mxCell>
        <mxCell id="Xuy7H9u-zmMq9Dujo6pJ-43" value="Internet" style="text;html=1;resizable=0;autosize=1;align=center;verticalAlign=middle;points=[];fillColor=none;strokeColor=none;rounded=0;shadow=0;sketch=0;fontColor=#666666;" parent="1" vertex="1">
          <mxGeometry x="563" y="301" width="60" height="20" as="geometry" />
        </mxCell>
        <mxCell id="SQzypkmjFM9dVMdxC4e--2" style="edgeStyle=none;rounded=0;orthogonalLoop=1;jettySize=auto;html=1;exitX=0.825;exitY=0.5;exitDx=0;exitDy=0;exitPerimeter=0;endArrow=none;endFill=0;strokeColor=#808080;strokeWidth=1;entryX=0.175;entryY=0.5;entryDx=0;entryDy=0;entryPerimeter=0;" edge="1" parent="1" target="Xuy7H9u-zmMq9Dujo6pJ-8">
          <mxGeometry relative="1" as="geometry">
            <mxPoint x="400.94999999999993" y="568.96" as="sourcePoint" />
            <mxPoint x="570" y="569" as="targetPoint" />
          </mxGeometry>
        </mxCell>
        <mxCell id="SQzypkmjFM9dVMdxC4e--4" style="edgeStyle=none;rounded=0;orthogonalLoop=1;jettySize=auto;html=1;endArrow=none;endFill=0;strokeColor=#808080;strokeWidth=1;exitX=0.825;exitY=0.5;exitDx=0;exitDy=0;exitPerimeter=0;entryX=0;entryY=0.5;entryDx=0;entryDy=0;" edge="1" parent="1" source="Xuy7H9u-zmMq9Dujo6pJ-1" target="Xuy7H9u-zmMq9Dujo6pJ-42">
          <mxGeometry relative="1" as="geometry">
            <mxPoint x="405" y="283" as="sourcePoint" />
            <mxPoint x="560" y="283" as="targetPoint" />
          </mxGeometry>
        </mxCell>
      </root>
    </mxGraphModel>
  </diagram>
</mxfile>
